<svg width="1144" height="1027" viewBox="0 0 1144 1027" fill="none" xmlns="http://www.w3.org/2000/svg">
<g opacity="1">
<path d="M1143.87 17.7107C1116.94 17.7107 1078.65 35.418 1034.77 78.5064C991.585 120.917 945.683 185.382 903.668 272.218C819.704 445.754 752.32 706.48 752.32 1052.16L576.285 1052.15C576.285 856.654 493.195 752.132 390.118 609.886C291.559 473.876 185.923 315.006 172.191 42.7038L171.054 1053.25H1.40845L0 -16.4522V-16.4753L170.687 -17.8307C170.687 -17.8346 170.687 -17.8391 170.687 -17.843H345.53C345.53 237.799 434.545 373.224 531.696 507.292C599.078 600.278 675.582 697.879 718.118 831.47C739.803 586.968 796.34 393.685 864.322 253.181C907.934 163.044 956.522 94.087 1004.14 47.3194C1051.08 1.22926 1099.9 -26 1143.87 -26V17.7107Z" fill="#0D1A27"/>
</g>
</svg>
